<svg width="186" height="76" viewBox="0 0 186 76" fill="none" xmlns="http://www.w3.org/2000/svg">
<rect width="186" height="76" rx="20" fill="#CCE8FD"/>
<path opacity="0.4" d="M65.6738 25.3086V25.6641H66.9043V27.7969C66.4486 28.3438 65.8379 28.6491 65.0723 28.7129C64.9993 28.722 64.9264 28.7266 64.8535 28.7266C63.0397 28.7083 62.1283 27.4323 62.1191 24.8984C62.1191 22.7292 62.7754 21.4714 64.0879 21.125C64.3158 21.0703 64.5573 21.043 64.8125 21.043C65.7513 21.043 66.4303 21.3027 66.8496 21.8223C67.123 22.1777 67.3691 22.7337 67.5879 23.4902H67.9434L67.875 20.8379L66.6855 21.084C66.1113 20.8014 65.5007 20.6602 64.8535 20.6602C63.7598 20.6602 62.821 21.0202 62.0371 21.7402C61.1803 22.5332 60.752 23.5677 60.752 24.8438C60.752 26.3021 61.2715 27.4414 62.3105 28.2617C63.0671 28.8451 63.9147 29.1367 64.8535 29.1367C65.5371 29.1367 66.1569 28.9863 66.7129 28.6855C66.7858 28.6491 66.8451 28.6126 66.8906 28.5762L68.0527 29V25.6641H69.0781V25.3086H65.6738ZM72.7526 23.3945C73.3906 23.3945 73.8144 23.6634 74.0241 24.2012C74.097 24.3743 74.1334 24.5612 74.1334 24.7617C74.1334 25.2174 73.9147 25.4954 73.4772 25.5957C73.2493 25.6413 72.9258 25.6595 72.5065 25.6504L71.0573 25.6094C71.1028 24.5612 71.4446 23.8776 72.0827 23.5586C72.2923 23.4492 72.5156 23.3945 72.7526 23.3945ZM75.1315 27.6875L74.7897 27.5645C74.4707 28.2572 73.9557 28.6491 73.2448 28.7402C73.1536 28.7493 73.067 28.7539 72.985 28.7539C72.028 28.7539 71.4264 28.1842 71.1803 27.0449C71.1074 26.7259 71.0664 26.375 71.0573 25.9922L72.6979 26.0195C73.8099 26.0378 74.5254 25.9329 74.8444 25.7051C75.0905 25.5228 75.2135 25.263 75.2135 24.9258C75.2135 24.306 74.8991 23.8138 74.2702 23.4492C73.8235 23.1849 73.3086 23.0527 72.7252 23.0527C71.5859 23.0527 70.7702 23.5267 70.278 24.4746C70.0228 24.9668 69.8952 25.5228 69.8952 26.1426C69.8952 27.2728 70.3008 28.1113 71.112 28.6582C71.595 28.9772 72.1465 29.1367 72.7662 29.1367C73.7506 29.1367 74.4752 28.7812 74.9401 28.0703C75.013 27.9427 75.0768 27.8151 75.1315 27.6875ZM75.8255 23.5312H76.7825V27.3867C76.8463 28.526 77.3704 29.1139 78.3548 29.1504C79.1933 29.1504 79.7174 28.6354 79.927 27.6055C79.927 27.5964 79.927 27.5872 79.927 27.5781L79.5579 27.5098C79.33 28.2663 78.9973 28.6764 78.5598 28.7402C78.0677 28.722 77.817 28.3711 77.8079 27.6875V23.5312H79.927V23.1895H77.8079V21.6035L76.7825 21.8906V23.1895H75.8255V23.5312ZM84.0904 26.0879C84.0904 24.6751 84.4778 23.8138 85.2525 23.5039C85.453 23.431 85.6627 23.3945 85.8814 23.3945C86.8931 23.3945 87.481 24.0326 87.6451 25.3086C87.6724 25.5273 87.6861 25.7689 87.6861 26.0332C87.6861 27.5645 87.2668 28.4622 86.4283 28.7266C86.2642 28.7721 86.0956 28.7949 85.9224 28.7949C85.0018 28.7949 84.4231 28.248 84.1861 27.1543C84.1223 26.8353 84.0904 26.4798 84.0904 26.0879ZM85.9224 23.0527C85.0474 23.0527 84.3183 23.3535 83.7349 23.9551C83.1972 24.5111 82.9283 25.2038 82.9283 26.0332C82.9283 27.1816 83.3476 28.043 84.1861 28.6172C84.6965 28.9635 85.2616 29.1367 85.8814 29.1367C86.7564 29.1367 87.481 28.8268 88.0552 28.207C88.5839 27.6419 88.8482 26.9355 88.8482 26.0879C88.8482 24.9395 88.4244 24.0872 87.5767 23.5312C87.0754 23.2122 86.524 23.0527 85.9224 23.0527ZM92.3312 28.6582H91.716V25.7051C91.7434 24.8574 92.0441 24.2467 92.6184 23.873C92.8645 23.7181 93.1151 23.6406 93.3703 23.6406C93.9263 23.6406 94.3046 23.9004 94.5051 24.4199C94.5871 24.6296 94.6281 24.8665 94.6281 25.1309V27.8379C94.6281 28.2572 94.5096 28.5078 94.2727 28.5898C94.1359 28.6354 93.9126 28.6582 93.6027 28.6582V29H96.6789C96.6789 28.7995 96.6105 28.6901 96.4738 28.6719C96.4374 28.6628 96.3918 28.6582 96.3371 28.6582H95.6535V25.2676C95.6535 24.3561 95.3391 23.7044 94.7102 23.3125C94.4185 23.1393 94.104 23.0527 93.7668 23.0527C93.0923 23.0527 92.5363 23.3216 92.0988 23.8594C91.9348 24.069 91.8026 24.3014 91.7023 24.5566L91.6477 23.1895H89.6652V23.5312H90.6906V27.8379C90.6906 28.2572 90.5721 28.5078 90.3352 28.5898C90.1984 28.6354 89.9751 28.6582 89.6652 28.6582V29H92.673C92.673 28.7995 92.6047 28.6901 92.468 28.6719C92.4315 28.6628 92.3859 28.6582 92.3312 28.6582ZM99.6802 23.5312H100.637V27.3867C100.701 28.526 101.225 29.1139 102.209 29.1504C103.048 29.1504 103.572 28.6354 103.782 27.6055C103.782 27.5964 103.782 27.5872 103.782 27.5781L103.413 27.5098C103.185 28.2663 102.852 28.6764 102.415 28.7402C101.922 28.722 101.672 28.3711 101.663 27.6875V23.5312H103.782V23.1895H101.663V21.6035L100.637 21.8906V23.1895H99.6802V23.5312ZM106.882 28.6582H106.198V25.7051C106.198 24.8757 106.485 24.2741 107.06 23.9004C107.297 23.7454 107.543 23.668 107.798 23.668C108.354 23.668 108.741 23.9277 108.96 24.4473C109.06 24.6934 109.11 24.9668 109.11 25.2676V27.8379C109.11 28.2572 109.01 28.5078 108.81 28.5898C108.682 28.6354 108.463 28.6582 108.153 28.6582V29H111.161C111.161 28.7995 111.093 28.6901 110.956 28.6719C110.92 28.6628 110.874 28.6582 110.819 28.6582H110.136V25.2676C110.136 24.2741 109.808 23.5996 109.151 23.2441C108.896 23.1165 108.623 23.0527 108.331 23.0527C107.657 23.0527 107.092 23.2988 106.636 23.791C106.444 24.0007 106.299 24.2376 106.198 24.502V20.1133H104.148V20.4551H105.173V27.8379C105.173 28.2572 105.054 28.5078 104.818 28.5898C104.681 28.6354 104.457 28.6582 104.148 28.6582V29H107.224C107.224 28.7995 107.155 28.6901 107.019 28.6719C106.982 28.6628 106.937 28.6582 106.882 28.6582ZM114.781 23.3945C115.419 23.3945 115.843 23.6634 116.053 24.2012C116.125 24.3743 116.162 24.5612 116.162 24.7617C116.162 25.2174 115.943 25.4954 115.506 25.5957C115.278 25.6413 114.954 25.6595 114.535 25.6504L113.086 25.6094C113.131 24.5612 113.473 23.8776 114.111 23.5586C114.321 23.4492 114.544 23.3945 114.781 23.3945ZM117.16 27.6875L116.818 27.5645C116.499 28.2572 115.984 28.6491 115.273 28.7402C115.182 28.7493 115.095 28.7539 115.013 28.7539C114.056 28.7539 113.455 28.1842 113.209 27.0449C113.136 26.7259 113.095 26.375 113.086 25.9922L114.726 26.0195C115.838 26.0378 116.554 25.9329 116.873 25.7051C117.119 25.5228 117.242 25.263 117.242 24.9258C117.242 24.306 116.928 23.8138 116.299 23.4492C115.852 23.1849 115.337 23.0527 114.754 23.0527C113.614 23.0527 112.799 23.5267 112.306 24.4746C112.051 24.9668 111.924 25.5228 111.924 26.1426C111.924 27.2728 112.329 28.1113 113.14 28.6582C113.623 28.9772 114.175 29.1367 114.795 29.1367C115.779 29.1367 116.504 28.7812 116.969 28.0703C117.041 27.9427 117.105 27.8151 117.16 27.6875Z" fill="#130F49"/>
<path d="M59.468 52.297L66.764 39.7H68.797L71.704 52.791L69.975 53.19L69.177 49.39H63.021L60.912 53.152L59.468 52.297ZM63.876 47.87H68.854L67.505 41.467L63.876 47.87ZM74.2516 43.12C75.569 43.12 76.2276 43.69 76.2276 44.83V45.229C76.595 44.545 77.07 43.9877 77.6526 43.557C78.2353 43.1137 78.913 42.892 79.6856 42.892C80.3696 42.892 80.965 43.0693 81.4716 43.424C81.9783 43.766 82.3646 44.2473 82.6306 44.868C82.9093 45.476 83.0486 46.1853 83.0486 46.996C83.0486 47.9333 82.9093 48.7883 82.6306 49.561C82.3646 50.321 81.9973 50.9797 81.5286 51.537C81.06 52.0817 80.5343 52.4997 79.9516 52.791C79.369 53.0823 78.7673 53.228 78.1466 53.228C77.5386 53.228 76.9686 53.076 76.4366 52.772C75.9173 52.468 75.512 52.0943 75.2206 51.651L74.2516 57.18H72.5416L74.5176 45.875C74.5556 45.6597 74.5746 45.4823 74.5746 45.343C74.5746 44.7477 74.2643 44.45 73.6436 44.45L74.2516 43.12ZM77.9946 51.708C78.59 51.708 79.1346 51.518 79.6286 51.138C80.1353 50.7453 80.5406 50.207 80.8446 49.523C81.1486 48.839 81.3006 48.0537 81.3006 47.167C81.3006 46.3057 81.1043 45.628 80.7116 45.134C80.319 44.6273 79.806 44.374 79.1726 44.374C78.666 44.374 78.1783 44.5323 77.7096 44.849C77.2536 45.1657 76.861 45.609 76.5316 46.179C76.2023 46.749 75.968 47.4203 75.8286 48.193L75.4866 50.112C75.7653 50.6187 76.1263 51.0113 76.5696 51.29C77.013 51.5687 77.488 51.708 77.9946 51.708ZM85.3985 43.12C86.7159 43.12 87.3745 43.69 87.3745 44.83V45.229C87.7419 44.545 88.2169 43.9877 88.7995 43.557C89.3822 43.1137 90.0599 42.892 90.8325 42.892C91.5165 42.892 92.1119 43.0693 92.6185 43.424C93.1252 43.766 93.5115 44.2473 93.7775 44.868C94.0562 45.476 94.1955 46.1853 94.1955 46.996C94.1955 47.9333 94.0562 48.7883 93.7775 49.561C93.5115 50.321 93.1442 50.9797 92.6755 51.537C92.2069 52.0817 91.6812 52.4997 91.0985 52.791C90.5159 53.0823 89.9142 53.228 89.2935 53.228C88.6855 53.228 88.1155 53.076 87.5835 52.772C87.0642 52.468 86.6589 52.0943 86.3675 51.651L85.3985 57.18H83.6885L85.6645 45.875C85.7025 45.6597 85.7215 45.4823 85.7215 45.343C85.7215 44.7477 85.4112 44.45 84.7905 44.45L85.3985 43.12ZM89.1415 51.708C89.7369 51.708 90.2815 51.518 90.7755 51.138C91.2822 50.7453 91.6875 50.207 91.9915 49.523C92.2955 48.839 92.4475 48.0537 92.4475 47.167C92.4475 46.3057 92.2512 45.628 91.8585 45.134C91.4659 44.6273 90.9529 44.374 90.3195 44.374C89.8129 44.374 89.3252 44.5323 88.8565 44.849C88.4005 45.1657 88.0079 45.609 87.6785 46.179C87.3492 46.749 87.1149 47.4203 86.9755 48.193L86.6335 50.112C86.9122 50.6187 87.2732 51.0113 87.7165 51.29C88.1599 51.5687 88.6349 51.708 89.1415 51.708ZM107.636 49.637C107.636 49.2823 107.56 48.9593 107.408 48.668C107.268 48.3767 107.009 48.079 106.629 47.775C106.249 47.4583 105.704 47.1037 104.995 46.711C104.007 46.1537 103.304 45.6027 102.886 45.058C102.48 44.5133 102.278 43.8167 102.278 42.968C102.278 42.2587 102.461 41.6443 102.829 41.125C103.209 40.6057 103.734 40.2003 104.406 39.909C105.077 39.6177 105.85 39.472 106.724 39.472C107.522 39.472 108.244 39.5733 108.89 39.776C109.536 39.966 110.137 40.2257 110.695 40.555L109.764 42.037C109.308 41.7457 108.826 41.505 108.32 41.315C107.826 41.125 107.243 41.03 106.572 41.03C105.824 41.03 105.223 41.1947 104.767 41.524C104.311 41.8407 104.083 42.2587 104.083 42.778C104.083 43.2467 104.241 43.6647 104.558 44.032C104.887 44.3867 105.489 44.7983 106.363 45.267C107.199 45.7103 107.838 46.1473 108.282 46.578C108.738 46.996 109.048 47.4393 109.213 47.908C109.39 48.3767 109.479 48.896 109.479 49.466C109.479 50.2387 109.276 50.91 108.871 51.48C108.478 52.0373 107.927 52.468 107.218 52.772C106.508 53.076 105.685 53.228 104.748 53.228C103.836 53.228 103.012 53.1077 102.278 52.867C101.543 52.6137 100.897 52.2653 100.34 51.822L101.518 50.359C101.948 50.7517 102.449 51.0683 103.019 51.309C103.601 51.537 104.241 51.651 104.938 51.651C105.761 51.651 106.413 51.4737 106.895 51.119C107.389 50.7517 107.636 50.2577 107.636 49.637ZM111.12 43.481H112.868L113.78 40.365H115.091L114.54 43.481H117.276L117.029 44.963H114.274L113.476 49.58C113.451 49.7193 113.432 49.8523 113.419 49.979C113.407 50.093 113.4 50.2007 113.4 50.302C113.4 50.7453 113.533 51.0937 113.799 51.347C114.065 51.5877 114.414 51.708 114.844 51.708C115.212 51.708 115.522 51.6573 115.775 51.556C116.029 51.442 116.257 51.328 116.459 51.214L116.668 52.696C116.428 52.8353 116.124 52.9557 115.756 53.057C115.402 53.171 115.003 53.228 114.559 53.228C114.091 53.228 113.635 53.133 113.191 52.943C112.761 52.753 112.406 52.4553 112.127 52.05C111.849 51.632 111.709 51.0937 111.709 50.435C111.709 50.1563 111.735 49.846 111.785 49.504L112.564 44.963H110.873L111.12 43.481ZM122.404 53.228C121.466 53.228 120.656 53.038 119.972 52.658C119.288 52.278 118.756 51.7523 118.376 51.081C118.008 50.397 117.825 49.6243 117.825 48.763C117.825 47.661 118.046 46.6667 118.49 45.78C118.946 44.8933 119.579 44.1903 120.39 43.671C121.2 43.1517 122.157 42.892 123.259 42.892C124.196 42.892 125.007 43.082 125.691 43.462C126.375 43.842 126.9 44.3677 127.268 45.039C127.648 45.7103 127.838 46.483 127.838 47.357C127.838 48.4463 127.616 49.4407 127.173 50.34C126.729 51.2267 126.096 51.9297 125.273 52.449C124.462 52.9683 123.506 53.228 122.404 53.228ZM122.461 51.708C123.221 51.708 123.867 51.5243 124.399 51.157C124.943 50.777 125.361 50.2703 125.653 49.637C125.944 49.0037 126.09 48.2943 126.09 47.509C126.09 46.9263 125.976 46.407 125.748 45.951C125.52 45.4823 125.19 45.1087 124.76 44.83C124.329 44.5513 123.81 44.412 123.202 44.412C122.454 44.412 121.808 44.602 121.264 44.982C120.719 45.3493 120.301 45.8497 120.01 46.483C119.718 47.1163 119.573 47.8257 119.573 48.611C119.573 49.181 119.687 49.7003 119.915 50.169C120.143 50.6377 120.472 51.0113 120.903 51.29C121.333 51.5687 121.853 51.708 122.461 51.708ZM130.585 45.894C130.598 45.8307 130.604 45.761 130.604 45.685C130.617 45.5963 130.623 45.5077 130.623 45.419C130.623 45.0643 130.522 44.8173 130.319 44.678C130.116 44.526 129.85 44.45 129.521 44.45L130.11 43.12C130.781 43.12 131.294 43.2847 131.649 43.614C132.016 43.9307 132.2 44.4057 132.2 45.039V45.419C132.567 44.5197 133.036 43.8737 133.606 43.481C134.189 43.0883 134.847 42.892 135.582 42.892C135.873 42.892 136.12 42.9173 136.323 42.968C136.538 43.006 136.716 43.0567 136.855 43.12L136.095 44.792C135.943 44.7287 135.785 44.6843 135.62 44.659C135.455 44.6337 135.265 44.621 135.05 44.621C134.594 44.621 134.138 44.7857 133.682 45.115C133.239 45.4317 132.833 45.9637 132.466 46.711C132.111 47.4583 131.82 48.4843 131.592 49.789L131.041 53H129.331L130.585 45.894ZM140.627 53.228C139.791 53.228 139.05 53.0507 138.404 52.696C137.77 52.3287 137.27 51.8093 136.903 51.138C136.548 50.454 136.371 49.6497 136.371 48.725C136.371 47.6737 136.586 46.7047 137.017 45.818C137.46 44.9313 138.081 44.222 138.879 43.69C139.689 43.158 140.633 42.892 141.71 42.892C142.444 42.892 143.065 43.0313 143.572 43.31C144.091 43.5887 144.49 43.9497 144.769 44.393C145.047 44.8363 145.187 45.3113 145.187 45.818C145.187 46.5147 145.022 47.091 144.693 47.547C144.363 48.003 143.939 48.3577 143.42 48.611C142.9 48.8517 142.337 49.0227 141.729 49.124C141.133 49.2253 140.563 49.276 140.019 49.276C139.677 49.276 139.335 49.2633 138.993 49.238C138.663 49.2 138.372 49.162 138.119 49.124C138.22 49.96 138.518 50.5997 139.012 51.043C139.506 51.4863 140.139 51.708 140.912 51.708C141.545 51.708 142.109 51.6257 142.603 51.461C143.097 51.2963 143.515 51.1317 143.857 50.967L144.009 52.487C143.629 52.6643 143.147 52.8353 142.565 53C141.982 53.152 141.336 53.228 140.627 53.228ZM141.577 44.336C140.981 44.336 140.443 44.488 139.962 44.792C139.48 45.0833 139.081 45.4887 138.765 46.008C138.461 46.5147 138.258 47.0973 138.157 47.756C138.448 47.8067 138.739 47.851 139.031 47.889C139.335 47.9143 139.664 47.927 140.019 47.927C141.083 47.927 141.925 47.7813 142.546 47.49C143.166 47.186 143.477 46.673 143.477 45.951C143.477 45.5077 143.299 45.1277 142.945 44.811C142.603 44.4943 142.147 44.336 141.577 44.336Z" fill="#130F49"/>
<path d="M40.0921 37.5065C40.1074 36.3168 40.4235 35.1503 41.0108 34.1155C41.5981 33.0807 42.4376 32.2113 43.4512 31.5882C42.8073 30.6686 41.9578 29.9118 40.9702 29.3779C39.9827 28.844 38.8842 28.5477 37.7622 28.5126C35.3686 28.2614 33.0481 29.9449 31.8283 29.9449C30.585 29.9449 28.707 28.5376 26.6848 28.5792C25.3767 28.6214 24.1019 29.0018 22.9846 29.6832C21.8672 30.3647 20.9454 31.3239 20.309 32.4675C17.5524 37.2403 19.6086 44.2548 22.2493 48.1128C23.5705 50.002 25.1146 52.1122 27.1351 52.0374C29.1122 51.9554 29.8506 50.7767 32.2371 50.7767C34.6015 50.7767 35.2943 52.0374 37.3558 51.9898C39.4773 51.9554 40.814 50.0923 42.0889 48.1852C43.0381 46.8391 43.7686 45.3514 44.2532 43.7772C43.0207 43.2558 41.9688 42.3832 41.2289 41.2681C40.4889 40.1531 40.0936 38.8448 40.0921 37.5065Z" fill="#130F49"/>
<path d="M36.1986 25.9756C37.3553 24.5869 37.9252 22.802 37.7872 21C36.02 21.1856 34.3875 22.0302 33.2151 23.3656C32.6419 24.018 32.2029 24.7769 31.9232 25.599C31.6434 26.4212 31.5285 27.2904 31.5849 28.1569C32.4688 28.166 33.3433 27.9745 34.1425 27.5966C34.9416 27.2187 35.6446 26.6645 36.1986 25.9756Z" fill="#130F49"/>
</svg>
